HIERARCHY
ROOT Hips
{
	OFFSET 0.000000 0.000000 0.000000
	CHANNELS 6 Xposition Yposition Zposition Zrotation Yrotation Xrotation 
	JOINT LeftUpLeg_virtual
	{
		OFFSET 0.000000 0.000000 0.000000
		CHANNELS 3 Zrotation Yrotation Xrotation
		JOINT LeftUpLeg
		{
			OFFSET 8.479694 -4.795517 -0.379053
			CHANNELS 3 Zrotation Yrotation Xrotation
			JOINT LeftLeg
			{
				OFFSET 0.485052 -32.551468 0.112863
				CHANNELS 3 Zrotation Yrotation Xrotation
				JOINT LeftFoot
				{
					OFFSET 0.438033 -32.635670 -3.012641
					CHANNELS 3 Zrotation Yrotation Xrotation
					JOINT LeftToeBase
					{
						OFFSET 0.970169 -13.225353 11.864223
						CHANNELS 3 Zrotation Yrotation Xrotation
						End Site
						{
							OFFSET 0.000000 0.000000 0.000000
						}
					}
				}
			}
		}
	}
	JOINT RightUpLeg_virtual
	{
		OFFSET 0.000000 0.000000 0.000000
		CHANNELS 3 Zrotation Yrotation Xrotation
		JOINT RightUpLeg
		{
			OFFSET -8.479694 -4.795517 -0.379053
			CHANNELS 3 Zrotation Yrotation Xrotation
			JOINT RightLeg
			{
				OFFSET -0.484100 -32.551483 0.112903
				CHANNELS 3 Zrotation Yrotation Xrotation
				JOINT RightFoot
				{
					OFFSET -0.438985 -32.635651 -3.012681
					CHANNELS 3 Zrotation Yrotation Xrotation
					JOINT RightToeBase
					{
						OFFSET -0.970169 -13.225354 11.864223
						CHANNELS 3 Zrotation Yrotation Xrotation
						End Site
						{
							OFFSET 0.000000 0.000000 0.000000
						}
					}
				}
			}
		}
	}
	JOINT Spine_virtual
	{
		OFFSET 0.000000 0.000000 0.000000
		CHANNELS 3 Zrotation Yrotation Xrotation
		JOINT Spine
		{
			OFFSET 0.000000 7.722015 1.166203
			CHANNELS 3 Zrotation Yrotation Xrotation
			JOINT Spine1
			{
				OFFSET 0.000000 12.024086 0.248766
				CHANNELS 3 Zrotation Yrotation Xrotation
				JOINT Spine2
				{
					OFFSET -0.000000 11.503036 -0.491240
					CHANNELS 3 Zrotation Yrotation Xrotation
					JOINT Neck_virtual
					{
						OFFSET 0.000000 0.000000 0.000000
						CHANNELS 3 Zrotation Yrotation Xrotation
						JOINT Neck
						{
							OFFSET 0.000000 18.430687 -3.123054
							CHANNELS 3 Zrotation Yrotation Xrotation
							JOINT Head
							{
								OFFSET -0.000000 9.051071 1.034021
								CHANNELS 3 Zrotation Yrotation Xrotation
								End Site
								{
									OFFSET 0.000000 0.000000 0.000000
								}
							}
						}
					}
					JOINT LeftShoulder_virtual
					{
						OFFSET 0.000000 0.000000 0.000000
						CHANNELS 3 Zrotation Yrotation Xrotation
						JOINT LeftShoulder
						{
							OFFSET 6.197824 13.665230 -4.064723
							CHANNELS 3 Zrotation Yrotation Xrotation
							JOINT LeftArm
							{
								OFFSET 7.778132 -0.187073 -1.709282
								CHANNELS 3 Zrotation Yrotation Xrotation
								JOINT LeftForeArm
								{
									OFFSET 21.954697 0.000000 -2.041093
									CHANNELS 3 Zrotation Yrotation Xrotation
									JOINT LeftHand
									{
										OFFSET 22.992908 0.000000 -0.870901
										CHANNELS 3 Zrotation Yrotation Xrotation
										End Site
										{
											OFFSET 0.000000 0.000000 0.000000
										}
									}
								}
							}
						}
					}
					JOINT RightShoulder_virtual
					{
						OFFSET 0.000000 0.000000 0.000000
						CHANNELS 3 Zrotation Yrotation Xrotation
						JOINT RightShoulder
						{
							OFFSET -6.197824 13.665230 -4.064723
							CHANNELS 3 Zrotation Yrotation Xrotation
							JOINT RightArm
							{
								OFFSET -7.778132 -0.187073 -1.709282
								CHANNELS 3 Zrotation Yrotation Xrotation
								JOINT RightForeArm
								{
									OFFSET -21.954697 0.000000 -2.041093
									CHANNELS 3 Zrotation Yrotation Xrotation
									JOINT RightHand
									{
										OFFSET -22.992908 0.000000 -0.870901
										CHANNELS 3 Zrotation Yrotation Xrotation
										End Site
										{
											OFFSET 0.000000 0.000000 0.000000
										}
									}
								}
							}
						}
					}
				}
			}
		}
	}
}
MOTION
Frames: 5
Frame Time: 0.033333
2.373909 81.686508 -5.670129 -179.968941 -4.381869 179.809238 -9.590389 -2.759015 16.158564 11.236655 -1.571179 -29.304264 -0.149725 1.682026 37.038251 1.367994 -9.325191 -13.754541 0.000000 0.000000 0.000000 -5.348933 -6.492503 15.284814 -0.387235 -13.770361 -20.530857 -2.691503 0.577623 27.908534 11.866939 5.577646 -3.389399 0.000000 0.000000 0.000000 -5.257330 -2.798900 11.111247 -10.849720 2.817182 -4.202082 1.677830 -1.189107 6.418996 -0.011449 -0.023361 -0.081102 1.761363 -0.204816 7.345071 16.365207 -5.975260 -12.160810 0.000000 0.000000 0.000000 2.449695 0.531306 4.164392 -1.761093 -5.458443 -1.339687 -56.928472 -10.538265 -9.945957 7.178049 -36.039971 2.803645 0.000000 0.000000 0.000000 -0.872058 1.854175 2.859937 1.180795 -6.906933 -7.395257 2.923437 21.253913 -69.403109 -10.242021 35.277422 -5.338908 0.000000 0.000000 0.000000 
1.749164 81.619980 -5.864543 -179.905817 -3.957768 179.836968 -9.662082 -2.492783 16.068782 10.713469 -0.850244 -29.328699 -0.034503 1.823931 37.528478 1.744587 -9.413557 -14.056880 0.000000 0.000000 0.000000 -5.280518 -6.260889 15.286197 -0.996670 -13.153659 -20.344360 -2.684299 0.782773 27.643528 11.913585 5.580623 -3.305768 0.000000 0.000000 0.000000 -5.255650 -2.823594 11.190438 -10.601348 2.870996 -4.152851 1.703489 -1.248644 6.444277 -0.012506 0.010689 -0.114956 1.688513 -0.286772 7.418480 16.363935 -6.055045 -11.893063 0.000000 0.000000 0.000000 2.374904 0.470948 4.246946 -1.547436 -5.705612 -1.317872 -57.189375 -10.850543 -8.927459 7.193222 -34.280330 2.993651 0.000000 0.000000 0.000000 -0.881268 1.590859 2.896509 0.941900 -6.735392 -7.364730 3.006037 21.387890 -69.878777 -10.378924 34.691463 -5.100554 0.000000 0.000000 0.000000 
1.196482 81.600632 -6.030103 -179.897033 -3.569599 179.821150 -9.770189 -2.175986 15.959019 10.123537 -0.204625 -29.236758 0.132557 1.875241 37.794189 2.035522 -9.547320 -14.180134 0.000000 0.000000 0.000000 -5.226369 -6.003682 15.311686 -1.469812 -12.600069 -20.141743 -2.708187 1.190392 27.307527 11.949965 5.391219 -3.201168 0.000000 0.000000 0.000000 -5.203277 -2.592552 11.232309 -10.369989 2.845855 -4.113549 1.711627 -1.355354 6.447359 -0.008101 -0.046732 -0.093694 1.683335 -0.445214 7.413625 16.317844 -6.041069 -11.453007 0.000000 0.000000 0.000000 2.344619 0.303514 4.201325 -1.548879 -5.845731 -1.224456 -57.626204 -11.109550 -8.200418 7.368009 -33.129751 3.042204 0.000000 0.000000 0.000000 -0.877936 1.416443 2.941562 0.643178 -6.607631 -7.192407 3.237114 21.712290 -70.331865 -10.779054 34.461060 -5.194898 0.000000 0.000000 0.000000 
0.707452 81.610008 -6.171782 -179.869890 -3.261871 179.830466 -9.828950 -1.845987 15.820053 9.572967 0.242732 -29.111745 0.304018 1.913222 37.886977 2.258973 -9.738700 -14.190960 0.000000 0.000000 0.000000 -5.149889 -5.691490 15.359694 -1.917367 -12.008897 -19.984780 -2.731763 1.487389 26.948896 11.947413 5.093296 -3.073397 0.000000 0.000000 0.000000 -5.166420 -2.399956 11.217951 -10.186014 2.838102 -4.067913 1.687025 -1.431471 6.435422 -0.053814 -0.061534 -0.140305 1.681760 -0.453936 7.430557 16.195975 -6.029650 -11.084076 0.000000 0.000000 0.000000 2.345292 0.290611 4.213224 -1.598079 -5.753209 -1.270672 -58.164928 -11.201745 -7.969461 7.383075 -32.492163 3.021239 0.000000 0.000000 0.000000 -0.846577 1.406900 2.837456 0.493602 -6.557742 -6.986512 3.623928 22.044697 -70.633042 -11.182422 34.581921 -5.451521 0.000000 0.000000 0.000000 
0.274196 81.633873 -6.296139 -179.852582 -3.193784 179.811041 -9.854907 -1.597014 15.715948 9.112924 0.410610 -28.994658 0.486170 1.908725 37.893920 2.493240 -9.917719 -14.118673 0.000000 0.000000 0.000000 -5.080658 -5.451279 15.478218 -2.321925 -11.529553 -19.905970 -2.707889 1.683794 26.612244 11.954990 4.754714 -2.986745 0.000000 0.000000 0.000000 -5.151598 -2.351652 11.193720 -10.053623 2.650995 -4.042617 1.711828 -1.468138 6.450976 0.004444 -0.043467 -0.068342 1.619395 -0.524507 7.364447 16.076913 -5.917860 -10.644735 0.000000 0.000000 0.000000 2.278633 0.257736 4.074151 -1.681634 -5.488098 -1.344733 -58.902704 -11.197873 -7.609007 7.638719 -32.233432 2.877080 0.000000 0.000000 0.000000 -0.920270 1.385126 2.797064 0.459501 -6.435054 -6.840425 3.876031 22.563118 -71.117794 -11.509437 34.908919 -5.620680 0.000000 0.000000 0.000000 
